<svg width="30" height="31" viewBox="0 0 30 31" fill="none" xmlns="http://www.w3.org/2000/svg">
<rect x="0.5" y="1.16211" width="29" height="29" rx="14.5" stroke="#307BC4"/>
<g clip-path="url(#clip0_14_214)">
<path d="M11.6127 20.9123H9.07355V12.7338H11.6127V20.9123ZM10.3418 11.6182C9.52982 11.6182 8.87125 10.9455 8.87125 10.1334C8.87125 9.74333 9.02618 9.36922 9.30195 9.09339C9.57773 8.81756 9.95176 8.6626 10.3418 8.6626C10.7318 8.6626 11.1058 8.81756 11.3816 9.09339C11.6574 9.36922 11.8123 9.74333 11.8123 10.1334C11.8123 10.9455 11.1534 11.6182 10.3418 11.6182ZM21.116 20.9123H18.5823V16.9311C18.5823 15.9822 18.5632 14.7654 17.2622 14.7654C15.942 14.7654 15.7397 15.7963 15.7397 16.8627V20.9123H13.2033V12.7338H15.6385V13.8494H15.6741C16.0131 13.2069 16.8412 12.5287 18.0766 12.5287C20.6464 12.5287 21.1188 14.2213 21.1188 16.4197V20.9123H21.116Z" fill="#307BC4"/>
</g>
<defs>
<clipPath id="clip0_14_214">
<rect width="12.31" height="14" fill="white" transform="translate(8.84 8.66211)"/>
</clipPath>
</defs>
</svg>
