<svg width="30" height="31" viewBox="0 0 30 31" fill="none" xmlns="http://www.w3.org/2000/svg">
<rect x="0.5" y="1.16211" width="29" height="29" rx="14.5" stroke="#307BC4"/>
<path d="M20.5609 12.8108C20.5698 12.9352 20.5698 13.0595 20.5698 13.1839C20.5698 16.977 17.6827 21.3476 12.4061 21.3476C10.7804 21.3476 9.27031 20.8768 8 20.0595C8.23097 20.0862 8.45303 20.0951 8.69289 20.0951C10.0342 20.0951 11.269 19.642 12.2551 18.8692C10.9936 18.8425 9.93654 18.0164 9.57232 16.8793C9.75 16.906 9.92765 16.9237 10.1142 16.9237C10.3718 16.9237 10.6295 16.8882 10.8693 16.826C9.55457 16.5595 8.5685 15.4047 8.5685 14.01V13.9745C8.95047 14.1877 9.39467 14.321 9.86545 14.3387C9.0926 13.8235 8.58628 12.944 8.58628 11.9491C8.58628 11.4161 8.72838 10.9275 8.97713 10.5011C10.3896 12.2423 12.5127 13.3793 14.8934 13.5037C14.849 13.2905 14.8223 13.0684 14.8223 12.8463C14.8223 11.2651 16.1015 9.97705 17.6916 9.97705C18.5177 9.97705 19.2639 10.3235 19.788 10.8831C20.4365 10.7588 21.0583 10.5189 21.6091 10.1903C21.3959 10.8565 20.9428 11.4162 20.3477 11.7715C20.9251 11.7093 21.4847 11.5494 21.9999 11.3273C21.6091 11.8958 21.1205 12.4021 20.5609 12.8108Z" fill="#307BC4"/>
</svg>
